User Type,Username,Date,Text
[T],Tyr3ll,2012-07-29T17:02Z,"toutes nos excuses...
Le bit rate video est à 4500 k réel
Mais rassurez-vous,la qualité est au rendez-vous,sans aucun doute .
Il est possible que cette version soit en fait notre DVDrip de ce film vu la faible taille du fichier qui est d'ailleurs de bonne qualité egalement sur le méme type de profil que notre BDrip.
Nous devrions pouvoir vous confirmer ceci d'içi peu..."
[T],Tyr3ll,2012-07-29T17:22Z,"Et,je ne suis pas vraiment certain qu'il passerait sur un BD5 car la limite d'un BD5 est de 4300 Mo
normalement.
A voir..."
[T],Tyr3ll,2012-07-29T17:25Z,"Bon..voilà plus de details concernant ce fichier video :

General

Complete name                  : Vertical Limit.(2002).(M.Campbell).(Remastered).BDrip.HD.720p@(Mkv-MPEG-4-H.263[)(]E-AC3)-FR.mkv
Format                         : Matroska
Format version                 : Version 2
File size                      : 4.34 GiB
Duration                       : 2h 4mn
Overall bit rate               : 4 993 Kbps
Movie name                     : Vertical Limit
Encoded date                   : UTC 2012-07-28 06:10:34
Writing application            : Lavf54.16.104
Writing library                : Lavf54.16.104
DATE                           : 2000

Video
ID                             : 1
Format                         : MPEG-4 Visual
Format profile                 : Advanced Simple@L1
Format settings, BVOP          : Yes
Format settings, QPel          : No
Format settings, GMC           : No warppoints
Format settings, Matrix        : Default (H.263)
Codec ID                       : V_MPEG4/ISO/ASP
Codec ID/Info                  : Advanced Simple Profile
Duration                       : 2h 4mn
Bit rate                       : 4 574 Kbps
Width                          : 1 280 pixels
Height                         : 720 pixels
Display aspect ratio           : 16:9
Frame rate                     : 23.976 fps
Color space                    : YUV
Chroma subsampling             : 4:2:0
Bit depth                      : 8 bits
Scan type                      : Progressive
Compression mode               : Lossy
Bits/(Pixel*Frame)             : 0.207
Stream size                    : 3.98 GiB (92%)
Writing library                : Lavc54.40.100
Default                        : Yes
Forced                         : No

Audio
ID                             : 2
Format                         : E-AC-3
Format/Info                    : Audio Coding 3
Format settings, Endianness    : Big
Codec ID                       : A_EAC3
Duration                       : 2h 4mn
Bit rate mode                  : Constant
Bit rate                       : 320 Kbps
Channel(s)                     : 6 channels
Channel positions              : Front: L C R, Side: L R, LFE
Sampling rate                  : 48.0 KHz
Bit depth                      : 32 bits
Compression mode               : Lossy
Delay relative to video        : 1mn 5s
Stream size                    : 285 MiB (6%)
Language                       : French
Default                        : Yes
Forced                         : No"
[T],Tyr3ll,2012-07-30T00:43Z,"MPHC 1.6.3.5672 new beta version from tonight :

x86 :
http://xhmikosr.1f0.de/mpc-hc/MPC-HC.1.6.3.5672.x86.exe

x64 :
http://xhmikosr.1f0.de/mpc-hc/MPC-HC.1.6.3.5672.x64.exe"
[T],Tyr3ll,2012-07-30T00:50Z,"Je confirme !!!
Il s'agit bien de notre BDrip.HD.720p low bit rate
Et croyez-moi,vous ne serez pas déçu de la qualité de ce dernier.
D'autres versions à plus hauts bit rates sont déjà prétes,ainsi qu'en 1080p aussi,mais nous les repeaufinons encore un peu,avant final release...
Chaque chose en son temps,mais tout viendra à point...
Bonne fin de soirée
@++"
